<?xml version="1.0" encoding="utf-8"?>
<!-- Generator: Adobe Illustrator 25.2.0, SVG Export Plug-In . SVG Version: 6.00 Build 0)  -->
<svg version="1.1" xmlns="http://www.w3.org/2000/svg" xmlns:xlink="http://www.w3.org/1999/xlink" x="0px" y="0px"
	 viewBox="0 0 512 512" style="enable-background:new 0 0 512 512;" xml:space="preserve">
<style type="text/css">
	.st0{fill:#C6C6C6;}
	.st1{fill:#616161;}
	.st2{fill:#898989;}
	.st3{fill:#F7F7F7;}
	.st4{fill:#FFFFFF;}
	.st5{fill:#959595;}
	.st6{fill:#B2B2B2;}
	.st7{fill:#A0A0A0;}
	.st8{fill:#3F3F3F;}
</style>
<g id="Слой_1">
</g>
<g id="Слой_2">
	<g id="XMLID_1_">
		<g>
			<path class="st0" d="M399.71,292.1l-17.44,17.98l-7.5-6.15L289,233.63V68.57c0-0.59-0.19-1.13-0.53-1.55
				c2.35-1.35,3.93-3.88,3.93-6.79c0-4.32-3.5-7.83-7.83-7.83c-4.32,0-7.83,3.51-7.83,7.83c0,2.96,1.64,5.53,4.06,6.86
				c-0.31,0.41-0.48,0.92-0.48,1.48v165.2l-37.93,36.56l-7.38,7.11l-11.74-44.33c-0.63-2.39-2.63-4.17-5.08-4.54l-24.81-3.65
				l-26.96-3.96c0.49-1.99,0.99-4.09,1.5-6.27c0.05-0.01,0.09-0.02,0.14-0.03l-0.13-0.01c3.25-13.94,6.66-30.84,7.04-41.77
				l-4.95-0.36c0.03-0.05,0.04-0.07,0.04-0.07l-6.59-0.43c-0.01,0.01-0.01,0.01-0.02,0.02l-1.68-0.12c0-0.01,0-0.02,0-0.03
				l17.48,0.99l25.67,1.46c1.79,0.1,3.39-0.87,4.26-2.38l33.48-37.82c1.79-2.02,1.7-5.22-0.2-7.13l-1.11-1.12
				c-1.9-1.91-4.89-1.82-6.69,0.21l-32.18,36.37l-25.59-1.46l-4.55-0.26c-0.12-0.3-0.25-0.59-0.37-0.86
				c-0.84-1.83-2.6-3.06-4.6-3.25l-2.85-0.27c-2.48-1.58-5.96-2.9-10.33-2.35c-1.33,0.17-2.7,0.52-4.09,1.01c0,0,0,0-0.01,0
				l-0.38-0.04c-0.92-0.08-1.79,0.37-2.27,1.11v0.01c-0.12,0.04-0.23,0.1-0.35,0.15l0.04-0.2c0,0-31.07-3.66-33.19,18.9
				c0,0-0.51,2.19,1.08,2.84c-6.52,6.89-13.33,15.87-19.73,27.54c-1.41,2.56-1.6,5.61-0.62,8.36c4.44,12.36,11.2,16.6,17.96,17.01
				l1.22,22.84c0.15,2.78,2.53,4.92,5.31,4.77l1.63-0.09c2.78-0.15,4.91-2.52,4.77-5.31l-1.32-24.61
				c6.68-2.91,11.64-7.39,11.64-7.39c-0.32,1.75-0.75,3.48-1.4,5.14c-2.51,6.42-2.76,16.17,2.71,22.93
				c0.55,0.68,0.96,1.47,1.27,2.29c0.01,0.02,0.02,0.05,0.03,0.07c1.48,3.96,2,8.19,1.56,12.36l-0.78,7.41L128.3,375.24
				c-0.15,1.48,0.22,2.91,0.99,4.09l-7.16,6.9L91.23,342l-25.14-35.97L33.8,345.24l-5.49,6.66C15.88,322.41,9,290.01,9,256
				C9,119.59,119.59,9,256,9s247,110.59,247,247c0,26.28-4.1,51.6-11.71,75.35l-33.27-40.42l-26.24-31.88L399.71,292.1z
				 M402.35,127.56c-5.59-9.04-24.45-35.79,3.1-59.63c0,0-41.38-10.4-61.21,4.81c-18.38,14.09-51.6-4.81-51.6-4.81v59.21
				c0,0,31.39,16.06,59.32,0C379.89,111.07,402.35,127.56,402.35,127.56z M179.98,123.17c10.92,0.2,29.65,0.07,19.42-3.52
				c-8.26-2.89-16.57-3.41-22.01-3.34c-3.33-5.7-9.14-9.68-15.99-10.16c-10.71-0.77-20.1,7.26-21.78,18.21
				c-0.03,0.1-0.04,0.2-0.05,0.3l32.95-1.65c0.28-0.01,0.55-0.01,0.82,0C174.28,123.04,176.8,123.12,179.98,123.17z M180.13,132.28
				c0.14-2.05,0.01-4.05-0.36-5.96c-2.98-0.04-5.38-0.12-6.44-0.16c-0.41-0.01-0.82-0.01-1.23,0.01l-32.74,1.64
				c-0.08,0.51-0.13,1.03-0.17,1.56c-0.84,11.9,7.64,22.18,18.95,22.98C169.44,153.16,179.29,144.17,180.13,132.28z M161,104.74
				c0-0.63-0.88-1.14-1.96-1.14c-1.08,0-1.95,0.51-1.95,1.14c0,0.64,0.87,1.15,1.95,1.15C160.12,105.89,161,105.38,161,104.74z"/>
			<path class="st1" d="M458.02,290.93l33.27,40.42c-5.61,17.54-13.13,34.22-22.31,49.81l-86.71-71.08l17.44-17.98l31.93,18.35
				l4.42-12.94l17.03,11.23l-2.73-18.38l7.64,0.58L458.02,290.93z"/>
			<path class="st2" d="M382.27,310.08l86.71,71.08c-7.73,13.14-16.65,25.49-26.61,36.92C397.1,470.11,330.39,503,256,503
				c-43.06,0-83.56-11.02-118.81-30.41c-21.66-11.9-41.35-26.96-58.42-44.57l43.36-41.79l7.16-6.9c1.07,1.66,2.9,2.85,5.07,3.08
				l6.54,0.69c3.72,0.39,7.04-2.18,7.42-5.75l1.92-18.21l57.84-55.75l0.24,0.25l53.11-10.21l38.63,39.31l2.22-33.87l43.57,20.77
				l1.02-19.75l27.58,4.43l0.32-0.39L382.27,310.08z"/>
			<polygon class="st3" points="431.78,259.05 458.02,290.93 458,290.94 450.36,290.36 453.09,308.74 436.06,297.51 431.64,310.45 
				399.71,292.1 			"/>
			<path class="st1" d="M405.45,67.93c-27.55,23.84-8.69,50.59-3.1,59.63c0,0-22.46-16.49-50.39-0.42c-27.93,16.06-59.32,0-59.32,0
				V67.93c0,0,33.22,18.9,51.6,4.81C364.07,57.53,405.45,67.93,405.45,67.93z"/>
			<path class="st3" d="M374.77,303.93l-0.32,0.39l-27.58-4.43l-1.02,19.75l-43.57-20.77l-2.22,33.87l-38.63-39.31l-53.11,10.21
				l-0.24-0.25l10.96-10.56c2.64,4.3,8.49,5.88,13.05,2.93l0.93-0.6c3.41-2.21,5.01-6.35,3.97-10.27l-1.98-7.45l7.38-7.11
				l37.93-36.56v10.46H289v-10.6L374.77,303.93z"/>
			<path class="st4" d="M292.4,60.23c0,2.91-1.58,5.44-3.93,6.79c-1.15,0.66-2.48,1.04-3.9,1.04c-1.37,0-2.65-0.35-3.77-0.97
				c-2.42-1.33-4.06-3.9-4.06-6.86c0-4.32,3.51-7.83,7.83-7.83C288.9,52.4,292.4,55.91,292.4,60.23z"/>
			<path class="st5" d="M289,233.63v10.6h-8.68v-10.46V68.57c0-0.56,0.17-1.07,0.48-1.48c1.12,0.62,2.4,0.97,3.77,0.97
				c1.42,0,2.75-0.38,3.9-1.04c0.34,0.42,0.53,0.96,0.53,1.55V233.63z"/>
			<path class="st4" d="M242.46,127.01c1.9,1.91,1.99,5.11,0.2,7.13l-33.48,37.82c-0.87,1.51-2.47,2.48-4.26,2.38l-25.67-1.46
				l-17.48-0.99c-0.79-6.19,1.73-10.03,2.54-11.07l8.14,0.19c-0.04-0.09-0.07-0.18-0.11-0.26l4.55,0.26l25.59,1.46l32.18-36.37
				c1.8-2.03,4.79-2.12,6.69-0.21L242.46,127.01z"/>
			<path class="st4" d="M236.99,284.89c1.04,3.92-0.56,8.06-3.97,10.27l-0.93,0.6c-4.56,2.95-10.41,1.37-13.05-2.93l7.16-6.9
				l8.81-8.49L236.99,284.89z"/>
			<path class="st4" d="M223.27,233.11l11.74,44.33l-8.81,8.49l-7.16,6.9c-0.52-0.82-0.91-1.74-1.15-2.75l-9.77-40.79
				c-0.17-0.69-0.74-1.2-1.44-1.29l-15.53-1.95l2.19-20.88l0.04-0.25l24.81,3.65C220.64,228.94,222.64,230.72,223.27,233.11z"/>
			<path class="st0" d="M219.04,292.83l-10.96,10.56l-57.84,55.75l8.93-84.9c0.04-0.01,0.09-0.03,0.13-0.05l-0.12-0.02l3.3-31.35
				l0.04-0.36l28.59,3.59c0,0.08,0.01,0.15,0.02,0.23l0.02-0.23l15.53,1.95c0.7,0.09,1.27,0.6,1.44,1.29l9.77,40.79
				C218.13,291.09,218.52,292.01,219.04,292.83z"/>
			<path class="st1" d="M199.4,119.65c10.23,3.59-8.5,3.72-19.42,3.52c-3.18-0.05-5.7-0.13-6.64-0.16c-0.27-0.01-0.54-0.01-0.82,0
				l-32.95,1.65c0.01-0.1,0.02-0.2,0.05-0.3c1.68-10.95,11.07-18.98,21.78-18.21c6.85,0.48,12.66,4.46,15.99,10.16
				C182.83,116.24,191.14,116.76,199.4,119.65z"/>
			<path class="st1" d="M193.38,224.92l-0.04,0.25c0,0-3.52,9.4-2.23,20.88l-28.59-3.59l1.09-10.37c0-0.01,0.01-0.02,0.01-0.03
				c0,0,0-0.01,0-0.02c0.77-2.94,1.73-6.69,2.76-10.93c0.01-0.05,0.02-0.1,0.04-0.15L193.38,224.92z"/>
			<path class="st4" d="M193.34,225.17l-2.19,20.88h-0.04C189.82,234.57,193.34,225.17,193.34,225.17z"/>
			<path class="st4" d="M191.15,246.05l-0.02,0.23c-0.01-0.08-0.02-0.15-0.02-0.23H191.15z"/>
			<path class="st4" d="M179.77,126.32c0.37,1.91,0.5,3.91,0.36,5.96c-0.84,11.89-10.69,20.88-21.99,20.07
				c-11.31-0.8-19.79-11.08-18.95-22.98c0.04-0.53,0.09-1.05,0.17-1.56l32.74-1.64c0.41-0.02,0.82-0.02,1.23-0.01
				C174.39,126.2,176.79,126.28,179.77,126.32z"/>
			<path class="st6" d="M170.02,172.52l4.95,0.36c-0.38,10.93-3.79,27.83-7.04,41.77l-30.25-1.91l-0.29-0.05l0.55-3
				C162.14,188.18,169.48,173.65,170.02,172.52z"/>
			<path class="st4" d="M172.34,160.75c0.04,0.08,0.07,0.17,0.11,0.26l-8.14-0.19c0.15-0.19,0.24-0.29,0.24-0.29
				s-0.59-0.17-1.46-0.3L172.34,160.75z"/>
			<path class="st6" d="M172.34,160.75l-9.25-0.52c-0.67-0.11-1.51-0.19-2.37-0.16c1.38-0.22,2.78-0.24,4.16-0.07l4.12,0.49
				c0,0-1.55-2.24-4.48-4.12l2.85,0.27c2,0.19,3.76,1.42,4.6,3.25C172.09,160.16,172.22,160.45,172.34,160.75z"/>
			<path class="st4" d="M163.47,172.02l6.59,0.43c0,0-0.01,0.02-0.04,0.07l-6.57-0.48C163.46,172.03,163.46,172.03,163.47,172.02z"
				/>
			<path class="st2" d="M163.45,172.04l6.57,0.48c-0.54,1.13-7.88,15.66-32.08,37.17l1.91-10.42
				C146.63,192.54,154.91,183.45,163.45,172.04z"/>
			<path class="st2" d="M169,160.49l-4.12-0.49c-1.38-0.17-2.78-0.15-4.16,0.07c-0.01,0-0.02,0-0.03,0c-0.08,0-0.16,0-0.24,0.01
				l-0.49-0.03l-2.62-0.15l-0.05,0.92c-1.48,0.5-6.2,2.25-11.86,5.95l1.23-7.23l0.43-2.53c0.06-0.34,0.18-0.63,0.35-0.9v-0.01
				c0.88-0.4,1.77-0.76,2.65-1.07c0.01,0,0.01,0,0.01,0l14.42,1.34C167.45,158.25,169,160.49,169,160.49z"/>
			<path class="st4" d="M168.06,214.66c-0.05,0.01-0.09,0.02-0.14,0.03c0-0.01,0-0.02,0.01-0.04L168.06,214.66z"/>
			<path class="st6" d="M167.93,214.65c-0.01,0.02-0.01,0.03-0.01,0.04c-14.01,3.5-30.24-1.95-30.24-1.95L167.93,214.65z"/>
			<path class="st1" d="M167.92,214.69c-0.51,2.18-1.01,4.28-1.5,6.27l-9.72-1.43c-1.03,4.24-1.99,7.99-2.76,10.93
				c0,0.01,0,0.02,0,0.02c0,0.01-0.01,0.02-0.01,0.03l-1.13,10.73l9.72,1.22l-0.04,0.36l-3.3,31.35l-19.8-3.04l-0.11-0.01l0.78-7.41
				c0.44-4.17-0.08-8.4-1.56-12.36c-0.01-0.02-0.02-0.05-0.03-0.07c-0.31-0.82-0.72-1.61-1.27-2.29
				c-5.47-6.76-5.22-16.51-2.71-22.93c0.65-1.66,1.08-3.39,1.4-5.14l1.51-8.23l0.29,0.05C137.68,212.74,153.91,218.19,167.92,214.69
				z"/>
			<path class="st1" d="M166.42,220.96c-0.02,0.05-0.03,0.1-0.04,0.15c-1.03,4.24-1.99,7.99-2.76,10.93c0,0.01,0,0.02,0,0.02
				c0,0.01-0.01,0.02-0.01,0.03l-1.09,10.37l-9.72-1.22l1.13-10.73c0-0.01,0.01-0.02,0.01-0.03c0,0,0-0.01,0-0.02
				c0.77-2.94,1.73-6.69,2.76-10.93L166.42,220.96z"/>
			<path class="st2" d="M164.52,156.37l-14.42-1.34c1.39-0.49,2.76-0.84,4.09-1.01C158.56,153.47,162.04,154.79,164.52,156.37z"/>
			<path class="st6" d="M164.55,160.53c0,0-0.09,0.1-0.24,0.29l-6.32-0.16c0.05-0.04,0.1-0.06,0.16-0.08l1.77-0.37
				c0.23-0.05,0.46-0.09,0.68-0.12l2.49,0.14C163.96,160.36,164.55,160.53,164.55,160.53z"/>
			<path class="st6" d="M157.99,160.66l6.32,0.16c-0.81,1.04-3.33,4.88-2.54,11.07l-0.51-0.03l-1.59-0.09h-0.06l-2.13-0.16
				l0.29-10.84c0.07-0.05,0.14-0.08,0.21-0.11H157.99z"/>
			<path class="st6" d="M161.77,171.92l1.68,0.12c-8.54,11.41-16.82,20.5-23.6,27.23l0.51-2.78l2.93-17.16v-0.01l2.14-12.55
				c5.66-3.7,10.38-5.45,11.86-5.95l-0.01,0.29c-7.43,8.58-0.58,14.29-0.58,14.29l5.11-3.19
				C161.8,172.11,161.78,172.01,161.77,171.92z"/>
			<path class="st6" d="M163.09,160.23l-2.49-0.14c0.03-0.01,0.06-0.01,0.09-0.02c0.01,0,0.02,0,0.03,0
				C161.58,160.04,162.42,160.12,163.09,160.23z"/>
			<path class="st6" d="M161.77,171.92c0.01,0.09,0.03,0.19,0.04,0.29l-5.11,3.19c0,0-6.85-5.71,0.58-14.29l-0.54,10.49l0.14,0.01
				h0.01l2.72,0.16h0.06L161.77,171.92z"/>
			<path class="st7" d="M161.77,171.89c0,0.01,0,0.02,0,0.03l-2.1-0.15l1.59,0.09L161.77,171.89z"/>
			<path class="st6" d="M160.69,160.07c-0.03,0.01-0.06,0.01-0.09,0.02l-0.15-0.01C160.53,160.07,160.61,160.07,160.69,160.07z"/>
			<path class="st6" d="M160.6,160.09c-0.22,0.03-0.45,0.07-0.68,0.12l-1.77,0.37c0.71-0.32,1.51-0.46,2.3-0.5L160.6,160.09z"/>
			<path class="st7" d="M159.04,103.6c1.08,0,1.96,0.51,1.96,1.14c0,0.64-0.88,1.15-1.96,1.15c-1.08,0-1.95-0.51-1.95-1.15
				C157.09,104.11,157.96,103.6,159.04,103.6z"/>
			<path class="st2" d="M159.96,160.05l0.49,0.03c-0.79,0.04-1.59,0.18-2.3,0.5l-0.38,0.08c0,0-0.17,0.05-0.48,0.16l0.05-0.92
				L159.96,160.05z"/>
			<path class="st6" d="M159.61,171.77l-2.72-0.16h-0.01l-0.14-0.01l0.54-10.49c0.02-0.02,0.04-0.05,0.06-0.07
				c0.14-0.1,0.28-0.19,0.43-0.27l-0.29,10.84L159.61,171.77z"/>
			<path class="st4" d="M159.3,274.19c-0.04,0.02-0.09,0.04-0.13,0.05l0.01-0.07L159.3,274.19z"/>
			<path class="st1" d="M159.18,274.17l-0.01,0.07c-9.66,4.14-19.79-3.11-19.79-3.11L159.18,274.17z"/>
			<path class="st4" d="M159.17,274.24l-8.93,84.9l-20.95,20.19c-0.77-1.18-1.14-2.61-0.99-4.09l10.97-104.12l0.11,0.01
				C139.38,271.13,149.51,278.38,159.17,274.24z"/>
			<path class="st6" d="M158.15,160.58c-0.06,0.02-0.11,0.04-0.16,0.08h-0.01h-0.21L158.15,160.58z"/>
			<path class="st6" d="M157.98,160.66c-0.07,0.03-0.14,0.06-0.21,0.11v-0.11H157.98z"/>
			<path class="st6" d="M157.77,160.66v0.11c-0.15,0.08-0.29,0.17-0.43,0.27c-0.02,0.02-0.04,0.05-0.06,0.07l0.01-0.29
				C157.6,160.71,157.77,160.66,157.77,160.66z"/>
			<path class="st4" d="M150.24,359.14l-1.92,18.21c-0.38,3.57-3.7,6.14-7.42,5.75l-6.54-0.69c-2.17-0.23-4-1.42-5.07-3.08
				L150.24,359.14z"/>
			<path class="st2" d="M149.71,154.99l0.38,0.04c-0.88,0.31-1.77,0.67-2.65,1.07C147.92,155.36,148.79,154.91,149.71,154.99z"/>
			<path class="st2" d="M147.09,156.26c0.12-0.05,0.23-0.11,0.35-0.15c-0.17,0.27-0.29,0.56-0.35,0.9l-0.43,2.53l-0.16,0.16
				L147.09,156.26z"/>
			<path class="st2" d="M147.13,156.06l-0.04,0.2c-0.13,0.06-0.25,0.12-0.38,0.19c0.13-0.13,0.26-0.25,0.4-0.38
				C147.12,156.07,147.12,156.07,147.13,156.06z"/>
			<path class="st1" d="M147.13,156.06c-0.01,0.01-0.01,0.01-0.02,0.01c-0.63,0.15-15.38,4.04-32.09,21.73
				c-1.59-0.65-1.08-2.84-1.08-2.84C116.06,152.4,147.13,156.06,147.13,156.06z"/>
			<path class="st1" d="M147.11,156.07c-0.14,0.13-0.27,0.25-0.4,0.38c-7.41,3.56-14.2,9.64-14.2,9.64l-0.09,2.53
				c-11.08,8.7-15.6,9.94-17.4,9.18C131.73,160.11,146.48,156.22,147.11,156.07z"/>
			<path class="st2" d="M147.09,156.26l-0.59,3.44l-14.26,14.06l0.18-5.14c3.9-3.06,8.6-7.04,14.29-12.17
				C146.84,156.38,146.96,156.32,147.09,156.26z"/>
			<path class="st2" d="M146.66,159.54l-1.23,7.23c-0.06,0.03-0.12,0.07-0.18,0.11l1.25-7.18L146.66,159.54z"/>
			<path class="st2" d="M146.5,159.7l-1.25,7.18c-4.21,2.76-8.92,6.6-13.19,11.78l0.18-4.9L146.5,159.7z"/>
			<path class="st8" d="M145.43,166.77l-2.14,12.55v0.01l-0.24,0.23l2.2-12.68C145.31,166.84,145.37,166.8,145.43,166.77z"/>
			<path class="st8" d="M145.25,166.88l-2.2,12.68l-20.34,20.05l0.77,14.49l-3.42,10.26c1.31-0.99,2.58-1.98,3.82-2.94l0.36,6.89
				c-3.55,1.55-7.58,2.65-11.61,2.4l-1.72-32.35c-0.45-1.69,0-3.57,1.33-4.89l20-19.71l-0.18,4.9
				C136.33,173.48,141.04,169.64,145.25,166.88z"/>
			<path class="st8" d="M143.29,179.33l-2.93,17.16l-0.51,2.78c-0.09,0.09-0.18,0.17-0.26,0.26l3.46-19.97L143.29,179.33z"/>
			<path class="st8" d="M122.71,199.61l20.34-20.05l-3.46,19.97c-9.48,9.38-15.95,14.11-15.95,14.11l-0.16,0.46L122.71,199.61z"/>
			<path class="st2" d="M132.51,166.09c0,0,6.79-6.08,14.2-9.64c-5.69,5.13-10.39,9.11-14.29,12.17L132.51,166.09z"/>
			<path class="st2" d="M139.85,199.27l-1.91,10.42c-0.04,0.04-0.09,0.08-0.13,0.12l1.78-10.28
				C139.67,199.44,139.76,199.36,139.85,199.27z"/>
			<path class="st2" d="M139.59,199.53l-1.78,10.28c-4.14,3.68-8.76,7.55-13.93,11.61l-0.4-7.32l0.16-0.46
				C123.64,213.64,130.11,208.91,139.59,199.53z"/>
			<path class="st8" d="M137.81,209.81c0.04-0.04,0.09-0.08,0.13-0.12l-0.55,3l-1.51,8.23L137.81,209.81z"/>
			<path class="st8" d="M137.81,209.81l-1.93,11.11c0,0-4.96,4.48-11.64,7.39l-0.36-6.89C129.05,217.36,133.67,213.49,137.81,209.81
				z"/>
			<path class="st8" d="M132.42,168.62l-0.18,5.14l-20,19.71c-1.33,1.32-1.78,3.2-1.33,4.89l1.72,32.35
				c-6.76-0.41-13.52-4.65-17.96-17.01c-0.98-2.75-0.79-5.8,0.62-8.36c6.4-11.67,13.21-20.65,19.73-27.54
				C116.82,178.56,121.34,177.32,132.42,168.62z"/>
			<path class="st4" d="M125.56,252.92c0.14,2.79-1.99,5.16-4.77,5.31l-1.63,0.09c-2.78,0.15-5.16-1.99-5.31-4.77l-1.22-22.84
				c4.03,0.25,8.06-0.85,11.61-2.4L125.56,252.92z"/>
			<path class="st2" d="M123.48,214.1l0.4,7.32c-1.24,0.96-2.51,1.95-3.82,2.94L123.48,214.1z"/>
			<path class="st8" d="M91.23,342l30.9,44.23l-43.36,41.79c-21.23-21.85-38.44-47.62-50.46-76.12l5.49-6.66l4.31,6.65l5.1-3.32
				l4.6,6.39l2.55-6.64l3.58,11.74l25.02-12.25l2.3,8.68l9.7-14.3L91.23,342z"/>
			<polygon class="st3" points="91.23,342 90.96,342.19 81.26,356.49 78.96,347.81 53.94,360.06 50.36,348.32 47.81,354.96 
				43.21,348.57 38.11,351.89 33.8,345.24 66.09,306.03 			"/>
		</g>
		<g>
		</g>
	</g>
</g>
</svg>
